<svg version="1.1" xmlns="http://www.w3.org/2000/svg" xmlns:xlink="http://www.w3.org/1999/xlink" width="210.35226" height="111.15271" viewBox="0,0,210.35226,111.15271"><g transform="translate(-188.20081,-91.28188)"><g data-paper-data="{&quot;isPaintingLayer&quot;:true}" fill-rule="nonzero" stroke="none" stroke-width="1" stroke-linecap="butt" stroke-linejoin="miter" stroke-miterlimit="10" stroke-dasharray="" stroke-dashoffset="0" style="mix-blend-mode: normal"><g fill="#4d3df7"><path d="M288.96569,157.57476c0.21621,-0.1995 3.0379,2.85835 2.82169,3.0579c-16.2867,11.31501 -35.97632,16.15722 -54.84179,21.27839c-11.85747,2.59221 -23.8308,5.16533 -36.0063,5.62775c-2.06901,0.07855 -8.78259,-0.1333 -11.2296,-0.80566c-0.59521,-0.16356 -0.99457,-0.73142 -1.49183,-1.09711c-0.23507,-0.16047 2.03429,-3.48469 2.26936,-3.32422c2.49335,-0.84018 5.46373,-1.03727 7.92846,-1.46611c11.56989,-2.01312 23.07935,-4.38098 34.52111,-7.02344c18.92589,-4.4724 37.97218,-8.86301 56.02758,-16.24764z" data-paper-data="{&quot;index&quot;:null}"/><path d="M203.14209,161.12292c0.16574,-0.21363 3.1871,2.12997 3.02136,2.34359c-0.14602,0.23634 -0.26187,0.49427 -0.43806,0.70903c-1.16435,1.41927 -2.47936,2.68788 -3.58946,4.16136c-1.2354,1.63971 -1.47261,2.13548 -2.5659,3.9327c-2.3291,4.09758 -3.97822,8.51567 -6.13614,12.69888c-1.05549,1.47261 -0.44619,0.70944 -1.41241,1.79823c-0.08274,0.09328 -0.25651,0.40767 -0.24379,0.28364c0.18146,-1.79755 1.20247,-0.7963 2.17395,-0.27251c5.39104,2.9772 10.74756,6.01279 15.99957,9.23192c2.27936,1.43218 5.0274,1.8761 7.21607,3.41363c0.21235,0.18164 -2.35705,3.18496 -2.5694,3.00328c-2.49835,-1.01674 -5.24907,-1.4264 -7.58544,-2.87625c-5.47191,-2.99856 -11.06285,-5.81829 -16.01774,-9.6549c-2.81919,-2.37186 -3.61935,-3.34543 -1.48124,-6.38692c1.77442,-4.536 3.37256,-9.17341 5.98121,-13.32041c1.69986,-2.61647 3.48506,-5.25887 5.81675,-7.3719c0.3009,-0.27264 0.69171,-0.43438 0.98979,-0.71012c0.31658,-0.29286 0.56055,-0.6555 0.84082,-0.98325z" data-paper-data="{&quot;index&quot;:null}"/></g><text transform="translate(284.30334,115.28459) rotate(6.46155) scale(0.55387,0.55387)" font-size="40" xml:space="preserve" fill="#4d3df7" fill-rule="nonzero" stroke="none" stroke-width="1" stroke-linecap="butt" stroke-linejoin="miter" stroke-miterlimit="10" stroke-dasharray="" stroke-dashoffset="0" font-family="sans-serif" font-weight="normal" text-anchor="start" style="mix-blend-mode: normal"><tspan x="0" dy="0">Paste </tspan><tspan x="0" dy="46.15px">your code!</tspan></text></g></g></svg>